# xmcd
#
# Track frame offsets:
#	150
#	24927
#	71680
#	114192
#	172212
#	193327
#	240166
#
# Disc length: 3804 seconds
#
# Revision: 1
# Processed by: cddbd v1.5.2PL0 Copyright (c) Steve Scherf et al.
# Submitted via: audiograbber 1.83.01
#
DISCID=560eda07
DTITLE=Tedeschi Trucks Band - Everybody's Talkin'
DYEAR=2012
DGENRE=blues
TTITLE0=Everybody's Talkin'
TTITLE1=Midnight In Harlem (Swamp Raga intro with Little Martha)
TTITLE2=Learn How to Love
TTITLE3=Bound For Glory
TTITLE4=Rollin' and Tumblin'
TTITLE5=Nobody's Free
TTITLE6=Darling Be Home Soon
EXTD=
EXTT0=
EXTT1=
EXTT2=
EXTT3=
EXTT4=
EXTT5=
EXTT6=
PLAYORDER=
